# xmcd
#
# Track frame offsets:
#	150
#	22300
#	44303
#	62692
#	86314
#	117510
#	138772
#	167255
#	184649
#	211394
#
# Disc length: 3502 seconds
#
# Revision: 1
# Processed by: cddbd v1.5.2PL0 Copyright (c) Steve Scherf et al.
# Submitted via: audiograbber 1.83.01
#
DISCID=800dac0a
DTITLE=Jan Lessner Group - New in Town
DYEAR=2008
DGENRE=Blues Soul
TTITLE0=Ain´t nobody home
TTITLE1=Kein Tag
TTITLE2=Worn out Jesus
TTITLE3=Half Full Glasses
TTITLE4=Soul Soldier
TTITLE5=Good MorninLittle Schoolgirl
TTITLE6=New in Town
TTITLE7=Rolling Stone
TTITLE8=Time Stands Still
TTITLE9=Mein Dad
EXTD=
EXTT0=
EXTT1=
EXTT2=
EXTT3=
EXTT4=
EXTT5=
EXTT6=
EXTT7=
EXTT8=
EXTT9=
PLAYORDER=
